<svg xmlns="http://www.w3.org/2000/svg" xmlns:xlink="http://www.w3.org/1999/xlink" id="visual" version="1.1" viewBox="0 0 900 490"><path d="M0 490L21.5 469C43 448 86 406 128.8 399.7C171.7 393.3 214.3 422.7 257.2 421.5C300 420.3 343 388.7 385.8 367.2C428.7 345.7 471.3 334.3 514.2 336.8C557 339.3 600 355.7 642.8 370.2C685.7 384.7 728.3 397.3 771.2 397.5C814 397.7 857 385.3 878.5 379.2L900 373L900 0L878.5 0C857 0 814 0 771.2 0C728.3 0 685.7 0 642.8 0C600 0 557 0 514.2 0C471.3 0 428.7 0 385.8 0C343 0 300 0 257.2 0C214.3 0 171.7 0 128.8 0C86 0 43 0 21.5 0L0 0Z" fill="#0081c9"/><path d="M0 265L21.5 261.3C43 257.7 86 250.3 128.8 271.5C171.7 292.7 214.3 342.3 257.2 344.8C300 347.3 343 302.7 385.8 282.3C428.7 262 471.3 266 514.2 263.7C557 261.3 600 252.7 642.8 273C685.7 293.3 728.3 342.7 771.2 359.3C814 376 857 360 878.5 352L900 344L900 0L878.5 0C857 0 814 0 771.2 0C728.3 0 685.7 0 642.8 0C600 0 557 0 514.2 0C471.3 0 428.7 0 385.8 0C343 0 300 0 257.2 0C214.3 0 171.7 0 128.8 0C86 0 43 0 21.5 0L0 0Z" fill="#7f7dcd"/><path d="M0 258L21.5 246.3C43 234.7 86 211.3 128.8 213.5C171.7 215.7 214.3 243.3 257.2 257C300 270.7 343 270.3 385.8 260.8C428.7 251.3 471.3 232.7 514.2 224.5C557 216.3 600 218.7 642.8 219.3C685.7 220 728.3 219 771.2 225.5C814 232 857 246 878.5 253L900 260L900 0L878.5 0C857 0 814 0 771.2 0C728.3 0 685.7 0 642.8 0C600 0 557 0 514.2 0C471.3 0 428.7 0 385.8 0C343 0 300 0 257.2 0C214.3 0 171.7 0 128.8 0C86 0 43 0 21.5 0L0 0Z" fill="#bc78be"/><path d="M0 149L21.5 160.5C43 172 86 195 128.8 201C171.7 207 214.3 196 257.2 182C300 168 343 151 385.8 139.5C428.7 128 471.3 122 514.2 133.7C557 145.3 600 174.7 642.8 188.5C685.7 202.3 728.3 200.7 771.2 196.5C814 192.3 857 185.7 878.5 182.3L900 179L900 0L878.5 0C857 0 814 0 771.2 0C728.3 0 685.7 0 642.8 0C600 0 557 0 514.2 0C471.3 0 428.7 0 385.8 0C343 0 300 0 257.2 0C214.3 0 171.7 0 128.8 0C86 0 43 0 21.5 0L0 0Z" fill="#e378a3"/><path d="M0 85L21.5 89.3C43 93.7 86 102.3 128.8 99.8C171.7 97.3 214.3 83.7 257.2 85.8C300 88 343 106 385.8 115.8C428.7 125.7 471.3 127.3 514.2 117.7C557 108 600 87 642.8 83.5C685.7 80 728.3 94 771.2 97.5C814 101 857 94 878.5 90.5L900 87L900 0L878.5 0C857 0 814 0 771.2 0C728.3 0 685.7 0 642.8 0C600 0 557 0 514.2 0C471.3 0 428.7 0 385.8 0C343 0 300 0 257.2 0C214.3 0 171.7 0 128.8 0C86 0 43 0 21.5 0L0 0Z" fill="#f48484"/></svg>