<svg id="visual" viewBox="0 0 900 600" width="900" height="600" xmlns="http://www.w3.org/2000/svg" xmlns:xlink="http://www.w3.org/1999/xlink" version="1.1"><path d="M533 0L507.3 50C481.7 100 430.3 200 420.2 300C410 400 441 500 456.5 550L472 600L0 600L0 550C0 500 0 400 0 300C0 200 0 100 0 50L0 0Z" fill="#fa7268"></path><path d="M307 0L312.3 50C317.7 100 328.3 200 356.2 300C384 400 429 500 451.5 550L474 600L0 600L0 550C0 500 0 400 0 300C0 200 0 100 0 50L0 0Z" fill="#e6536d"></path><path d="M315 0L311.3 50C307.7 100 300.3 200 288.3 300C276.3 400 259.7 500 251.3 550L243 600L0 600L0 550C0 500 0 400 0 300C0 200 0 100 0 50L0 0Z" fill="#cb3674"></path><path d="M238 0L230 50C222 100 206 200 205.7 300C205.3 400 220.7 500 228.3 550L236 600L0 600L0 550C0 500 0 400 0 300C0 200 0 100 0 50L0 0Z" fill="#a9207b"></path><path d="M89 0L94.5 50C100 100 111 200 107.2 300C103.3 400 84.7 500 75.3 550L66 600L0 600L0 550C0 500 0 400 0 300C0 200 0 100 0 50L0 0Z" fill="#7f167f"></path></svg>