<svg id="visual" viewBox="0 0 900 600" width="900" height="600" xmlns="http://www.w3.org/2000/svg" xmlns:xlink="http://www.w3.org/1999/xlink" version="1.1"><path d="M0 489L21.5 467C43 445 86 401 128.8 390.5C171.7 380 214.3 403 257.2 413.2C300 423.3 343 420.7 385.8 406.5C428.7 392.3 471.3 366.7 514.2 354.3C557 342 600 343 642.8 359.5C685.7 376 728.3 408 771.2 418C814 428 857 416 878.5 410L900 404L900 0L878.5 0C857 0 814 0 771.2 0C728.3 0 685.7 0 642.8 0C600 0 557 0 514.2 0C471.3 0 428.7 0 385.8 0C343 0 300 0 257.2 0C214.3 0 171.7 0 128.8 0C86 0 43 0 21.5 0L0 0Z" fill="#fa7268"></path><path d="M0 316L21.5 311.8C43 307.7 86 299.3 128.8 307.5C171.7 315.7 214.3 340.3 257.2 357.7C300 375 343 385 385.8 382C428.7 379 471.3 363 514.2 340C557 317 600 287 642.8 288.5C685.7 290 728.3 323 771.2 335C814 347 857 338 878.5 333.5L900 329L900 0L878.5 0C857 0 814 0 771.2 0C728.3 0 685.7 0 642.8 0C600 0 557 0 514.2 0C471.3 0 428.7 0 385.8 0C343 0 300 0 257.2 0C214.3 0 171.7 0 128.8 0C86 0 43 0 21.5 0L0 0Z" fill="#f26467"></path><path d="M0 237L21.5 249C43 261 86 285 128.8 296.7C171.7 308.3 214.3 307.7 257.2 302C300 296.3 343 285.7 385.8 270C428.7 254.3 471.3 233.7 514.2 227.7C557 221.7 600 230.3 642.8 232.5C685.7 234.7 728.3 230.3 771.2 239.8C814 249.3 857 272.7 878.5 284.3L900 296L900 0L878.5 0C857 0 814 0 771.2 0C728.3 0 685.7 0 642.8 0C600 0 557 0 514.2 0C471.3 0 428.7 0 385.8 0C343 0 300 0 257.2 0C214.3 0 171.7 0 128.8 0C86 0 43 0 21.5 0L0 0Z" fill="#e95567"></path><path d="M0 134L21.5 132.3C43 130.7 86 127.3 128.8 144C171.7 160.7 214.3 197.3 257.2 214.5C300 231.7 343 229.3 385.8 209C428.7 188.7 471.3 150.3 514.2 144.3C557 138.3 600 164.7 642.8 176.7C685.7 188.7 728.3 186.3 771.2 187.5C814 188.7 857 193.3 878.5 195.7L900 198L900 0L878.5 0C857 0 814 0 771.2 0C728.3 0 685.7 0 642.8 0C600 0 557 0 514.2 0C471.3 0 428.7 0 385.8 0C343 0 300 0 257.2 0C214.3 0 171.7 0 128.8 0C86 0 43 0 21.5 0L0 0Z" fill="#df4667"></path><path d="M0 144L21.5 130.8C43 117.7 86 91.3 128.8 88.2C171.7 85 214.3 105 257.2 113.7C300 122.3 343 119.7 385.8 112.8C428.7 106 471.3 95 514.2 94.8C557 94.7 600 105.3 642.8 115.2C685.7 125 728.3 134 771.2 124.3C814 114.7 857 86.3 878.5 72.2L900 58L900 0L878.5 0C857 0 814 0 771.2 0C728.3 0 685.7 0 642.8 0C600 0 557 0 514.2 0C471.3 0 428.7 0 385.8 0C343 0 300 0 257.2 0C214.3 0 171.7 0 128.8 0C86 0 43 0 21.5 0L0 0Z" fill="#d53767"></path></svg>