<svg id="visual" viewBox="0 0 900 600" width="900" height="600" xmlns="http://www.w3.org/2000/svg" xmlns:xlink="http://www.w3.org/1999/xlink" version="1.1"><path d="M0 431L21.5 421.8C43 412.7 86 394.3 128.8 383.8C171.7 373.3 214.3 370.7 257.2 385.8C300 401 343 434 385.8 429C428.7 424 471.3 381 514.2 359.8C557 338.7 600 339.3 642.8 334.7C685.7 330 728.3 320 771.2 317.7C814 315.3 857 320.7 878.5 323.3L900 326L900 0L878.5 0C857 0 814 0 771.2 0C728.3 0 685.7 0 642.8 0C600 0 557 0 514.2 0C471.3 0 428.7 0 385.8 0C343 0 300 0 257.2 0C214.3 0 171.7 0 128.8 0C86 0 43 0 21.5 0L0 0Z" fill="#fa7268"></path><path d="M0 387L21.5 380.8C43 374.7 86 362.3 128.8 339C171.7 315.7 214.3 281.3 257.2 279.8C300 278.3 343 309.7 385.8 319.5C428.7 329.3 471.3 317.7 514.2 321.7C557 325.7 600 345.3 642.8 358C685.7 370.7 728.3 376.3 771.2 359.2C814 342 857 302 878.5 282L900 262L900 0L878.5 0C857 0 814 0 771.2 0C728.3 0 685.7 0 642.8 0C600 0 557 0 514.2 0C471.3 0 428.7 0 385.8 0C343 0 300 0 257.2 0C214.3 0 171.7 0 128.8 0C86 0 43 0 21.5 0L0 0Z" fill="#ef5f67"></path><path d="M0 293L21.5 294.7C43 296.3 86 299.7 128.8 297.8C171.7 296 214.3 289 257.2 283.2C300 277.3 343 272.7 385.8 265.5C428.7 258.3 471.3 248.7 514.2 238.5C557 228.3 600 217.7 642.8 214.3C685.7 211 728.3 215 771.2 224.2C814 233.3 857 247.7 878.5 254.8L900 262L900 0L878.5 0C857 0 814 0 771.2 0C728.3 0 685.7 0 642.8 0C600 0 557 0 514.2 0C471.3 0 428.7 0 385.8 0C343 0 300 0 257.2 0C214.3 0 171.7 0 128.8 0C86 0 43 0 21.5 0L0 0Z" fill="#e34c67"></path><path d="M0 168L21.5 171C43 174 86 180 128.8 177.8C171.7 175.7 214.3 165.3 257.2 164C300 162.7 343 170.3 385.8 180.7C428.7 191 471.3 204 514.2 204.3C557 204.7 600 192.3 642.8 179.2C685.7 166 728.3 152 771.2 151.5C814 151 857 164 878.5 170.5L900 177L900 0L878.5 0C857 0 814 0 771.2 0C728.3 0 685.7 0 642.8 0C600 0 557 0 514.2 0C471.3 0 428.7 0 385.8 0C343 0 300 0 257.2 0C214.3 0 171.7 0 128.8 0C86 0 43 0 21.5 0L0 0Z" fill="#d53867"></path><path d="M0 131L21.5 120.7C43 110.3 86 89.7 128.8 80.8C171.7 72 214.3 75 257.2 74C300 73 343 68 385.8 74.3C428.7 80.7 471.3 98.3 514.2 100.5C557 102.7 600 89.3 642.8 92.8C685.7 96.3 728.3 116.7 771.2 114.3C814 112 857 87 878.5 74.5L900 62L900 0L878.5 0C857 0 814 0 771.2 0C728.3 0 685.7 0 642.8 0C600 0 557 0 514.2 0C471.3 0 428.7 0 385.8 0C343 0 300 0 257.2 0C214.3 0 171.7 0 128.8 0C86 0 43 0 21.5 0L0 0Z" fill="#c62368"></path></svg>