<svg id="visual" viewBox="0 0 900 600" width="900" height="600" xmlns="http://www.w3.org/2000/svg" xmlns:xlink="http://www.w3.org/1999/xlink" version="1.1"><path d="M0 195L21.5 191.2C43 187.3 86 179.7 128.8 187.8C171.7 196 214.3 220 257.2 227.3C300 234.7 343 225.3 385.8 214.5C428.7 203.7 471.3 191.3 514.2 182.3C557 173.3 600 167.7 642.8 167.2C685.7 166.7 728.3 171.3 771.2 185.2C814 199 857 222 878.5 233.5L900 245L900 0L878.5 0C857 0 814 0 771.2 0C728.3 0 685.7 0 642.8 0C600 0 557 0 514.2 0C471.3 0 428.7 0 385.8 0C343 0 300 0 257.2 0C214.3 0 171.7 0 128.8 0C86 0 43 0 21.5 0L0 0Z" fill="#fa7268"></path><path d="M0 127L21.5 129.5C43 132 86 137 128.8 145.7C171.7 154.3 214.3 166.7 257.2 174.3C300 182 343 185 385.8 176.2C428.7 167.3 471.3 146.7 514.2 145.3C557 144 600 162 642.8 165.8C685.7 169.7 728.3 159.3 771.2 149C814 138.7 857 128.3 878.5 123.2L900 118L900 0L878.5 0C857 0 814 0 771.2 0C728.3 0 685.7 0 642.8 0C600 0 557 0 514.2 0C471.3 0 428.7 0 385.8 0C343 0 300 0 257.2 0C214.3 0 171.7 0 128.8 0C86 0 43 0 21.5 0L0 0Z" fill="#ef5f67"></path><path d="M0 136L21.5 132.7C43 129.3 86 122.7 128.8 119.5C171.7 116.3 214.3 116.7 257.2 115.8C300 115 343 113 385.8 115.3C428.7 117.7 471.3 124.3 514.2 125C557 125.7 600 120.3 642.8 111.7C685.7 103 728.3 91 771.2 92.5C814 94 857 109 878.5 116.5L900 124L900 0L878.5 0C857 0 814 0 771.2 0C728.3 0 685.7 0 642.8 0C600 0 557 0 514.2 0C471.3 0 428.7 0 385.8 0C343 0 300 0 257.2 0C214.3 0 171.7 0 128.8 0C86 0 43 0 21.5 0L0 0Z" fill="#e34b67"></path><path d="M0 38L21.5 37.5C43 37 86 36 128.8 41.8C171.7 47.7 214.3 60.3 257.2 66.8C300 73.3 343 73.7 385.8 72C428.7 70.3 471.3 66.7 514.2 68.3C557 70 600 77 642.8 75.5C685.7 74 728.3 64 771.2 62C814 60 857 66 878.5 69L900 72L900 0L878.5 0C857 0 814 0 771.2 0C728.3 0 685.7 0 642.8 0C600 0 557 0 514.2 0C471.3 0 428.7 0 385.8 0C343 0 300 0 257.2 0C214.3 0 171.7 0 128.8 0C86 0 43 0 21.5 0L0 0Z" fill="#d53767"></path></svg>